<svg xmlns="http://www.w3.org/2000/svg" width="86" height="160" viewBox="0 0 86 160">
    <g fill="none" fill-rule="evenodd">
        <g transform="matrix(-1 0 0 1 86 0)">
            <path fill="#D8D8D8" fill-rule="nonzero" d="M85.43 101.905c.013-14.077 1.124-24.084-4.172-32.042-5.734-8.358-12.297-7.58-37.334-12.414-10.532-2.125-20.132-7.5-19.918-17.61.772-22.065 37.204-22.155 37.515.721.57 13.683 23.93 15.103 23.93-1.764C85.304 17.223 66.453.13 42.758 0 21.028.119 3.254 14.496.408 33.875c-.71 5.343-.33 119.374-.08 120.36.93 2.985 3.33 5.06 6.845 5.629.913.106 69.933.209 71.62-.059 2.27-.466 3.916-1.46 5.268-3.208 1.765-2.544 1.355.687 1.37-54.692zm-5.493 50.766c-.096.704-.408 1.24-1.005 1.707-1.245.882-69.078.607-70.639.57-3.964-.271-2.729 3.155-2.729-116.137C5.7 19.166 23.334 4.887 42.758 4.998 67.443 5.14 81.878 25.4 79.901 41.03c-.793 5.156-7.88 6.978-11.506 2.882-1.479-1.755-1.31-2.836-1.415-4.833-1.555-23.692-37.758-28.905-47.007-6.38-4.19 10.611.183 21.554 14.565 27.271 11.605 4.517 32.9 5.125 38.876 9.268 3.733 2.669 5.298 6.774 6.035 11.118.689 4.238.682 69.934.488 72.315z"/>
            <rect width="49.959" height="54" x="17.5" y="78.5" stroke="#D8D8D8" stroke-linecap="round" stroke-linejoin="round" stroke-width="5" rx="2"/>
        </g>
        <text fill="#D8D8D8" font-family="GothamRounded-Bold, Gotham Rounded" font-size="14" font-weight="bold" letter-spacing="4">
            <tspan x="16" y="150">ONL</tspan> <tspan x="59.626" y="150">Y</tspan>
        </text>
        <path fill="#D8D8D8" d="M35.272 104.304c4.512 0 7.368-2.496 7.368-7.584v-7.776a1.834 1.834 0 0 0-1.848-1.848 1.834 1.834 0 0 0-1.848 1.848v7.92c0 2.664-1.368 4.032-3.624 4.032-2.256 0-3.624-1.416-3.624-4.152v-7.8a1.834 1.834 0 0 0-1.848-1.848A1.834 1.834 0 0 0 28 88.944v7.896c0 4.944 2.76 7.464 7.272 7.464zm17.112-.024c3.624 0 6.168-1.872 6.168-5.208v-.048c0-2.928-1.92-4.152-5.328-5.04-2.904-.744-3.624-1.104-3.624-2.208v-.048c0-.816.744-1.464 2.16-1.464 1.152 0 2.304.408 3.528 1.128.288.168.576.264.936.264.96 0 1.728-.744 1.728-1.704 0-.72-.408-1.224-.816-1.464-1.512-.96-3.288-1.488-5.328-1.488-3.432 0-5.88 2.016-5.88 5.064v.048c0 3.336 2.184 4.272 5.568 5.136 2.808.72 3.384 1.2 3.384 2.136v.048c0 .984-.912 1.584-2.424 1.584-1.632 0-3.024-.576-4.296-1.512a1.777 1.777 0 0 0-1.056-.336c-.96 0-1.728.744-1.728 1.704 0 .576.288 1.104.696 1.392a10.844 10.844 0 0 0 6.312 2.016zM29.848 123.8h9.432c.912 0 1.656-.72 1.656-1.632a1.66 1.66 0 0 0-1.656-1.656h-7.608v-3.528h6.408c.912 0 1.656-.72 1.656-1.632a1.66 1.66 0 0 0-1.656-1.656h-6.408v-3.408h7.488c.912 0 1.656-.72 1.656-1.632A1.66 1.66 0 0 0 39.16 107h-9.312A1.834 1.834 0 0 0 28 108.848v13.104c0 1.032.816 1.848 1.848 1.848zM44 122.096v-13.248c0-1.032.816-1.848 1.848-1.848h5.832c2.136 0 3.792.6 4.896 1.704.936.936 1.44 2.256 1.44 3.84v.048c0 2.64-1.32 4.272-3.36 5.112l2.568 3.12c.36.456.6.84.6 1.416 0 1.032-.864 1.704-1.752 1.704-.84 0-1.392-.408-1.824-.96l-3.6-4.56h-2.952v3.672a1.834 1.834 0 0 1-1.848 1.848A1.834 1.834 0 0 1 44 122.096zm4-7.272h3.744c1.8 0 2.832-.96 2.832-2.376v-.048c0-1.584-1.104-2.4-2.904-2.4H48v4.824z"/>
    </g>
</svg>
